<mxfile host="app.diagrams.net" modified="2021-02-18T11:17:17.619Z" agent="5.0 (Windows NT 10.0; Win64; x64) AppleWebKit/537.36 (KHTML, like Gecko) Chrome/88.0.4324.150 Safari/537.36 Edg/88.0.705.68" etag="O9BDdAVLUkv9MAILpXZR" version="14.3.2" type="github">
  <diagram id="63h-pBjdWZII78M9BfGE" name="Page-1">
    <mxGraphModel dx="782" dy="435" grid="1" gridSize="10" guides="1" tooltips="1" connect="1" arrows="1" fold="1" page="1" pageScale="1" pageWidth="850" pageHeight="1100" math="0" shadow="0">
      <root>
        <mxCell id="0" />
        <mxCell id="1" parent="0" />
        <mxCell id="js2Lk6F2AfsSzgivTQNF-1" value="" style="verticalLabelPosition=bottom;html=1;verticalAlign=top;align=center;strokeColor=none;fillColor=#00BEF2;shape=mxgraph.azure.azure_subscription;" vertex="1" parent="1">
          <mxGeometry x="122.6" y="60" width="40" height="30" as="geometry" />
        </mxCell>
        <mxCell id="js2Lk6F2AfsSzgivTQNF-2" value="" style="aspect=fixed;html=1;points=[];align=center;image;fontSize=12;image=img/lib/azure2/general/Resource_Groups.svg;" vertex="1" parent="1">
          <mxGeometry x="167.58999999999997" y="131.19" width="20" height="18.81" as="geometry" />
        </mxCell>
        <mxCell id="js2Lk6F2AfsSzgivTQNF-15" value="" style="aspect=fixed;html=1;points=[];align=center;image;fontSize=12;image=img/lib/azure2/networking/Virtual_Networks.svg;dashed=1;fillColor=none;" vertex="1" parent="1">
          <mxGeometry x="519.38" y="161.25000000000003" width="16.75" height="10" as="geometry" />
        </mxCell>
        <mxCell id="js2Lk6F2AfsSzgivTQNF-17" value="" style="aspect=fixed;html=1;points=[];align=center;image;fontSize=12;image=img/lib/azure2/networking/Virtual_Networks.svg;dashed=1;fillColor=none;" vertex="1" parent="1">
          <mxGeometry x="519.38" y="202.5" width="16.75" height="10" as="geometry" />
        </mxCell>
        <mxCell id="js2Lk6F2AfsSzgivTQNF-177" style="edgeStyle=orthogonalEdgeStyle;rounded=0;orthogonalLoop=1;jettySize=auto;html=1;strokeColor=#001DBC;startArrow=classic;startFill=1;endArrow=none;endFill=0;entryX=1;entryY=0.5;entryDx=0;entryDy=0;fillColor=#0050ef;" edge="1" parent="1" source="js2Lk6F2AfsSzgivTQNF-34" target="js2Lk6F2AfsSzgivTQNF-101">
          <mxGeometry relative="1" as="geometry">
            <mxPoint x="430" y="180" as="targetPoint" />
            <Array as="points">
              <mxPoint x="424" y="191" />
              <mxPoint x="424" y="178" />
            </Array>
          </mxGeometry>
        </mxCell>
        <mxCell id="js2Lk6F2AfsSzgivTQNF-34" value="" style="whiteSpace=wrap;html=1;dashed=1;strokeColor=#001DBC;fontColor=#ffffff;fillColor=none;" vertex="1" parent="1">
          <mxGeometry x="460.81" y="176.25" width="78.38" height="30" as="geometry" />
        </mxCell>
        <mxCell id="js2Lk6F2AfsSzgivTQNF-36" value="" style="whiteSpace=wrap;html=1;dashed=1;strokeColor=#001DBC;fontColor=#ffffff;fillColor=none;" vertex="1" parent="1">
          <mxGeometry x="460.81" y="136.88" width="78.38" height="30" as="geometry" />
        </mxCell>
        <mxCell id="js2Lk6F2AfsSzgivTQNF-42" value="&lt;font style=&quot;font-size: 7px&quot; color=&quot;#66b2ff&quot;&gt;lv-dev-network&lt;/font&gt;" style="text;html=1;resizable=0;autosize=1;align=center;verticalAlign=middle;points=[];fillColor=none;strokeColor=none;rounded=0;dashed=1;" vertex="1" parent="1">
          <mxGeometry x="181.74" y="127.5" width="60" height="20" as="geometry" />
        </mxCell>
        <mxCell id="js2Lk6F2AfsSzgivTQNF-45" value="&lt;font style=&quot;font-size: 6px&quot; color=&quot;#66b2ff&quot;&gt;Vnet-prod-USEast-2&lt;/font&gt;" style="text;html=1;resizable=0;autosize=1;align=center;verticalAlign=middle;points=[];fillColor=none;strokeColor=none;rounded=0;dashed=1;" vertex="1" parent="1">
          <mxGeometry x="465" y="176.25" width="70" height="20" as="geometry" />
        </mxCell>
        <mxCell id="js2Lk6F2AfsSzgivTQNF-47" value="&lt;font style=&quot;font-size: 6px&quot; color=&quot;#66b2ff&quot;&gt;vnet-useast2-fw&lt;/font&gt;" style="text;html=1;resizable=0;autosize=1;align=center;verticalAlign=middle;points=[];fillColor=none;strokeColor=none;rounded=0;dashed=1;" vertex="1" parent="1">
          <mxGeometry x="465.75" y="141.25" width="60" height="20" as="geometry" />
        </mxCell>
        <mxCell id="js2Lk6F2AfsSzgivTQNF-66" value="" style="aspect=fixed;html=1;points=[];align=center;image;fontSize=12;image=img/lib/azure2/networking/Virtual_Networks.svg;fillColor=none;" vertex="1" parent="1">
          <mxGeometry x="355.72" y="202.35000000000002" width="17" height="10.15" as="geometry" />
        </mxCell>
        <mxCell id="js2Lk6F2AfsSzgivTQNF-73" value="&lt;font style=&quot;font-size: 6px&quot; color=&quot;#66b2ff&quot;&gt;lv-dev-vdi-vnet-centralIndia&lt;/font&gt;" style="text;html=1;resizable=0;autosize=1;align=center;verticalAlign=middle;points=[];fillColor=none;strokeColor=none;rounded=0;dashed=1;" vertex="1" parent="1">
          <mxGeometry x="277.93" y="189.5" width="90" height="20" as="geometry" />
        </mxCell>
        <mxCell id="js2Lk6F2AfsSzgivTQNF-76" value="&lt;font color=&quot;#66b2ff&quot; size=&quot;1&quot;&gt;&lt;b&gt;Lakeview-Dev/Test&lt;/b&gt;&lt;/font&gt;" style="text;html=1;resizable=0;autosize=1;align=center;verticalAlign=middle;points=[];fillColor=none;strokeColor=none;rounded=0;dashed=1;" vertex="1" parent="1">
          <mxGeometry x="161.73999999999998" y="105" width="100" height="20" as="geometry" />
        </mxCell>
        <mxCell id="js2Lk6F2AfsSzgivTQNF-153" style="edgeStyle=orthogonalEdgeStyle;rounded=0;orthogonalLoop=1;jettySize=auto;html=1;entryX=0;entryY=0.5;entryDx=0;entryDy=0;strokeColor=#001DBC;fillColor=#0050ef;" edge="1" parent="1" source="js2Lk6F2AfsSzgivTQNF-81" target="js2Lk6F2AfsSzgivTQNF-134">
          <mxGeometry relative="1" as="geometry" />
        </mxCell>
        <mxCell id="js2Lk6F2AfsSzgivTQNF-81" value="" style="whiteSpace=wrap;html=1;dashed=1;strokeColor=#001DBC;fontColor=#ffffff;fillColor=none;" vertex="1" parent="1">
          <mxGeometry x="200" y="390" width="180" height="80.67" as="geometry" />
        </mxCell>
        <mxCell id="js2Lk6F2AfsSzgivTQNF-82" value="" style="aspect=fixed;html=1;points=[];align=center;image;fontSize=12;image=img/lib/azure2/networking/Virtual_Networks.svg;fillColor=none;" vertex="1" parent="1">
          <mxGeometry x="354.06" y="465.52000000000004" width="17" height="10.15" as="geometry" />
        </mxCell>
        <mxCell id="js2Lk6F2AfsSzgivTQNF-83" value="&lt;font style=&quot;font-size: 6px&quot; color=&quot;#66b2ff&quot;&gt;lv-prod-network-useast2&lt;/font&gt;" style="text;html=1;resizable=0;autosize=1;align=center;verticalAlign=middle;points=[];fillColor=none;strokeColor=none;rounded=0;dashed=1;" vertex="1" parent="1">
          <mxGeometry x="273.75" y="450.67" width="80" height="20" as="geometry" />
        </mxCell>
        <mxCell id="js2Lk6F2AfsSzgivTQNF-84" value="" style="shape=image;verticalLabelPosition=bottom;labelBackgroundColor=#ffffff;verticalAlign=top;aspect=fixed;imageAspect=0;image=data:image/png,iVBORw0KGgoAAAANSUhEUgAAAOEAAADhCAMAAAAJbSJIAAAAkFBMVEUAccb///8AaMMAb8XF1u3I2/AAbcUAa8QAZ8NEjNAAZcIkgMzk7vjh8PmItOAAcsex0OuLr93w9/z3/P681u5hmdVkntbV5fSxyOfq9fsvhM0AdsjS4/Rinde00Ozd6/dNktN0qNuRuuIRecmhxOYAX8B6q9yKteChweUxic+cweQfgcx0odd2qtzF1e2Ss94a2d+PAAAJ70lEQVR42u3dWZequBYA4OzsNgngUEUQZVBQbKvK2+f2//93/VCMCk5M0ZW8naWnyGemnUACgYGTN/QFycDXk4F8c+HcPL63cMKRTt5Z6C2QYGC/sdBnhBD2877CmBNCCOGbdxUuKflNdPeewk0GJES4byiUcQEkhC7fThhZjJQT9733Eh4okmpibPJGQtsV50BCUMzfRugknNQl6q/eQujFNQWYFiP9en2h/UUZaUxIE+e1hfI7oEiuJRRx+MLCU0LJzcRov8b+hNMvfqP8cqNpTF5OKCcu5ff5fuuqf7BfSRjtfcHIQwlpsAtfRDj99tkDxVcYGU++ItWFMvyyzGd4KZKb1lcoVRXK6LAJxPO8DCkS92OqnFBOTkuLU9aSl1VXir67jVQRes63m3DKu9FlSGSUo7F3vPGE0p6GH/t/ftCknGGXuhKTU3MRH0/O1JYDCaU3W4WTj/2fTewH1KSc92OrliYXNPBjd346/DVZrWYzT8ouhSvXdV3DMGLfspJkseBcUM4Y9k47cyLjnArBOSFBkliWZcSGYbiu64YthROTMY5FImMnLCfOmPlXWyElaieqhVqohVqohVqohVqohVqohVqohVqohVqohVqohVqohVqohVqohVqohVqohVqohVqohVqohVqohVqohVqohVqohVqohVqohW8uRGTsnh0p936vHyHSNNVvFOW/H17kDRk16Y/huu7yJ6Fm404+ZNQ0E8N1Xdf4QdO8uieuFyH6Tpr+1B2WwL/X6/V6vU2q+UIe7JxZ8ZftyZeFtT/fYlPZmjfb7qzmXan9CI3846TmwmbK+F/5MxSGc7kha3lZzsLY1ux5juYBjiOciGZhuYTY4qPur7vs3Oc37VtfsnGEsOP3CJlfv+/1TIji0JiR0YT2ZT29FDae7lUVMuvKztjRhOCYN4W4KG12ldNotYpmNUJu2OcbOqUKwstLXwhFcX7JdpkETFBGrM3argqZUfLYzs7wk8Dyjd12NbbQOx+tzoXF16OEpmM4IqP0T1mIVgGcLQVl6SZKRmmyn44qhAO9LuSnbMdt9bdAnhRNFTHvi+ydedYBcXNnb8YQztJfPWbXhdlZSQa7iMyKjG6zK06tmkvyIBljPAzTXEXVgONMiIv039MrIS6Lswuu6iNRHCWmiZL0SydxTRikPWkomsNsno0THnlwM3WvwqmZDdCVAK2pDKNmIcvOipTGg6e+9CxkPC2elbjWl6blI63G4jGzproXRCkhsuz4wzltFtJsONyaTdMlKyvCx0/X6FmIWRdYLp9zIcvP8jw1EPk+K8LH59t9C/NupPS9i1qa5NGYk9QejiXCK5OxkYXFebLFJOMiaiudrCf3NQdk4SL9CWacqCckZtrK5JW5hSidziG/Lg6pw2zqsaYqCvOjnR3aKMRFeXoo11bVmPdXlUURxquJjSUkPOtIssixZgaMQeWUS7mv5Jf9qZku4nFeSV8ujiUk2RHkXhpZ1a1iIFZn796m1K3y7CDTuPSboHffuuYQQkzSCPwgGoUEzXhW/cMJuxgsjLJwpo6Q8GNl8lArJITxeWUOb+dHJ6svJGbaV84oNgsJ0qBaVbPjr/NaWprlKibMo649vSIkBGlwKi+aZme0Z3Vgx9Rsh+Ux/QevCQlBivuirqaxXj5a7EujBZ4+ftNhpoIQWToahByvCn/LsVio45VVkcrF0rsf9O8PFYQE/fT7R3pDSAgRxbJhzMpRm1c3taBqCInY58HzTSFhQRbj/AZCeVT3o7AQedZcxG1haRFcVIaLrVBXWKwl7f5e3RQSM7sBE2C5jsMC1RUSmg52Ng9vC+l3pV6a2ULU2lRYiCxtXOuP20L+XQljimUAl6srLOrpWRkia25c6SodsiyCsS2mrpCIbeW/ZquJyfHiYH0U2XhBz5YTwf45myCrJES064SBvfKrDxtgvtCaL0MWq/qwq5xni6ZCwrOXAJXXvEM3MDkiEoLIRJJz8kgUWXF3NNoEgrP0xpOVRXlKCIul0ctVfW8yNyw0+cLffORFbRejQ2lFDsBzjv/EfhzvTiupRuRdrFbIJiEAgJR29YTcyh1S6/wWsEpzi6KeuteE5+lkVmO51RNPZw0tLIKVO4RzcX4HqvlRDLDnTA1hvmhTuvdU/4TFbEkvZ1ZNr4Hw5gEfYTXRq7ttmU/YixGf1Lz1YOXWLoAi/bl8LYu9XSIfdkU4+fz8/Pz8PNaGZfz4++m/QTE/FizeO5Etf3ub6OMYmE13mVDwzSm0bQkgpW2vDp/G1Uf3eno2kV1bhc4Wq6tBK6cmWoZhWBaa9OptUGRc8MQ3DN8KmLj1IhClni996Ezwe7+rnxHWQi3UQi3UQi3UwrcQ/r+tkKsunLQUhqoLeVthpLyw7buCPAVeD3Q1sailsO5ukEoJiWwrNBQXWtBWOFe7ITK3tXCr9oCY36Z7XjgzlRaKSWshMJUbInJoL3SZys1w2YHQEQoL6akDoVR4REQ+7UAIG3WrabFdqpVQ4fGCrjsRykTValrZfttCWHkoUq3h/g90I7S5ooVIpx0Jy8/uvthgeK8wUnNINKPOhHUnJ7zCtOIBoafgqI8s6lD4zMbA3jvSOXQpVG9MrDyc1IEQtqpNE80tdCtsPLVB4Yj0QaGtVGdzuaWmvVCtAPyekPthYc0j2OP1oxvoQ6hOf4oL2Yvw/ISP8YDmCvoRqtIU71iceVYIRxWIdAf9CbM9kaOOhAb0KQR/7IE/3//fl9AbuUNteuK4OyFEZEwi3ryp3V4I4YhjBlIH+heOSCx2E/UrhMlYvQ39hmGE4NBRSlGcYCghTEaoqPgc8EkhTAa/b/os8FkhhANPiFGsYVghzAI26DDxAUMLwbaGi1ERQxheCLYx1EyDWVMYQwjSHeZ+BjVsGEcIsBcD9DfCbZXHdkLY9j5qYOk8uzGEEC767VKRb2FcIXh+n/0NIyGMLQQ49halIo0lKCCEbU/PESPdd5C7LoQQJX0M/gwnoIoQpNv9sNFuFOxaCLAlrOMaOu8oZ10JYdppDMcTB1QTAszNrmoqCtcGBYWw6qjDYbjtMFddCkEeO1jdQBp7oKoQYNK6GBk/dJuljoUgd61aI4qfKagtBJhYz0dxfHHoPD/dC0HOn2yNKFwPXkEIsPKfCXF44PSRmV6EAAfOHi7APxJeSAi2+1hrpEbYU076EgJMHqiqfLHuLR/9CQFO/L7BkZk7G15SCPbujuaINI76zESvQoAwvtEckfpOv1noWQjgWFeaI3JykPDiQoATNkQAyOhR9n75AYQgv2qNjO+8Aa4+hBDAu+xyGHejQa49jBAgqr4ujpnL1UBXHkoIEG3ys2UZjcPBrjucECByOUNCGF2GA151SCHAascpdcNBrzmsEGB6mg18xf8AZ4bYFeK18xgAAAAASUVORK5CYII=;" vertex="1" parent="1">
          <mxGeometry x="267.22999999999996" y="161.25" width="16.25" height="16.25" as="geometry" />
        </mxCell>
        <mxCell id="js2Lk6F2AfsSzgivTQNF-85" value="" style="aspect=fixed;html=1;points=[];align=center;image;fontSize=12;image=img/lib/azure2/compute/Virtual_Machine.svg;fillColor=none;" vertex="1" parent="1">
          <mxGeometry x="345.76" y="161.25" width="26.96" height="25" as="geometry" />
        </mxCell>
        <mxCell id="js2Lk6F2AfsSzgivTQNF-88" value="&lt;font style=&quot;font-size: 6px&quot; color=&quot;#66b2ff&quot;&gt;lv-dev-vdi-subnet&lt;/font&gt;" style="text;html=1;resizable=0;autosize=1;align=center;verticalAlign=middle;points=[];fillColor=none;strokeColor=none;rounded=0;dashed=1;" vertex="1" parent="1">
          <mxGeometry x="262.23" y="173.81" width="60" height="20" as="geometry" />
        </mxCell>
        <mxCell id="js2Lk6F2AfsSzgivTQNF-89" value="&lt;font style=&quot;font-size: 6px&quot; color=&quot;#66b2ff&quot;&gt;AzureBastionSubnet&lt;/font&gt;" style="text;html=1;resizable=0;autosize=1;align=center;verticalAlign=middle;points=[];fillColor=none;strokeColor=none;rounded=0;dashed=1;" vertex="1" parent="1">
          <mxGeometry x="189.99999999999994" y="173.81" width="70" height="20" as="geometry" />
        </mxCell>
        <mxCell id="js2Lk6F2AfsSzgivTQNF-90" value="" style="shape=image;verticalLabelPosition=bottom;labelBackgroundColor=#ffffff;verticalAlign=top;aspect=fixed;imageAspect=0;image=data:image/png,iVBORw0KGgoAAAANSUhEUgAAAOEAAADhCAMAAAAJbSJIAAAAkFBMVEUAccb///8AaMMAb8XF1u3I2/AAbcUAa8QAZ8NEjNAAZcIkgMzk7vjh8PmItOAAcsex0OuLr93w9/z3/P681u5hmdVkntbV5fSxyOfq9fsvhM0AdsjS4/Rinde00Ozd6/dNktN0qNuRuuIRecmhxOYAX8B6q9yKteChweUxic+cweQfgcx0odd2qtzF1e2Ss94a2d+PAAAJ70lEQVR42u3dWZequBYA4OzsNgngUEUQZVBQbKvK2+f2//93/VCMCk5M0ZW8naWnyGemnUACgYGTN/QFycDXk4F8c+HcPL63cMKRTt5Z6C2QYGC/sdBnhBD2877CmBNCCOGbdxUuKflNdPeewk0GJES4byiUcQEkhC7fThhZjJQT9733Eh4okmpibPJGQtsV50BCUMzfRugknNQl6q/eQujFNQWYFiP9en2h/UUZaUxIE+e1hfI7oEiuJRRx+MLCU0LJzcRov8b+hNMvfqP8cqNpTF5OKCcu5ff5fuuqf7BfSRjtfcHIQwlpsAtfRDj99tkDxVcYGU++ItWFMvyyzGd4KZKb1lcoVRXK6LAJxPO8DCkS92OqnFBOTkuLU9aSl1VXir67jVQRes63m3DKu9FlSGSUo7F3vPGE0p6GH/t/ftCknGGXuhKTU3MRH0/O1JYDCaU3W4WTj/2fTewH1KSc92OrliYXNPBjd346/DVZrWYzT8ouhSvXdV3DMGLfspJkseBcUM4Y9k47cyLjnArBOSFBkliWZcSGYbiu64YthROTMY5FImMnLCfOmPlXWyElaieqhVqohVqohVqohVqohVqohVqohVqohVqohVqohVqohVqohVqohVqohVqohVqohVqohVqohVqohVqohVqohVqohVqohVqohW8uRGTsnh0p936vHyHSNNVvFOW/H17kDRk16Y/huu7yJ6Fm404+ZNQ0E8N1Xdf4QdO8uieuFyH6Tpr+1B2WwL/X6/V6vU2q+UIe7JxZ8ZftyZeFtT/fYlPZmjfb7qzmXan9CI3846TmwmbK+F/5MxSGc7kha3lZzsLY1ux5juYBjiOciGZhuYTY4qPur7vs3Oc37VtfsnGEsOP3CJlfv+/1TIji0JiR0YT2ZT29FDae7lUVMuvKztjRhOCYN4W4KG12ldNotYpmNUJu2OcbOqUKwstLXwhFcX7JdpkETFBGrM3argqZUfLYzs7wk8Dyjd12NbbQOx+tzoXF16OEpmM4IqP0T1mIVgGcLQVl6SZKRmmyn44qhAO9LuSnbMdt9bdAnhRNFTHvi+ydedYBcXNnb8YQztJfPWbXhdlZSQa7iMyKjG6zK06tmkvyIBljPAzTXEXVgONMiIv039MrIS6Lswuu6iNRHCWmiZL0SydxTRikPWkomsNsno0THnlwM3WvwqmZDdCVAK2pDKNmIcvOipTGg6e+9CxkPC2elbjWl6blI63G4jGzproXRCkhsuz4wzltFtJsONyaTdMlKyvCx0/X6FmIWRdYLp9zIcvP8jw1EPk+K8LH59t9C/NupPS9i1qa5NGYk9QejiXCK5OxkYXFebLFJOMiaiudrCf3NQdk4SL9CWacqCckZtrK5JW5hSidziG/Lg6pw2zqsaYqCvOjnR3aKMRFeXoo11bVmPdXlUURxquJjSUkPOtIssixZgaMQeWUS7mv5Jf9qZku4nFeSV8ujiUk2RHkXhpZ1a1iIFZn796m1K3y7CDTuPSboHffuuYQQkzSCPwgGoUEzXhW/cMJuxgsjLJwpo6Q8GNl8lArJITxeWUOb+dHJ6svJGbaV84oNgsJ0qBaVbPjr/NaWprlKibMo649vSIkBGlwKi+aZme0Z3Vgx9Rsh+Ux/QevCQlBivuirqaxXj5a7EujBZ4+ftNhpoIQWToahByvCn/LsVio45VVkcrF0rsf9O8PFYQE/fT7R3pDSAgRxbJhzMpRm1c3taBqCInY58HzTSFhQRbj/AZCeVT3o7AQedZcxG1haRFcVIaLrVBXWKwl7f5e3RQSM7sBE2C5jsMC1RUSmg52Ng9vC+l3pV6a2ULU2lRYiCxtXOuP20L+XQljimUAl6srLOrpWRkia25c6SodsiyCsS2mrpCIbeW/ZquJyfHiYH0U2XhBz5YTwf45myCrJES064SBvfKrDxtgvtCaL0MWq/qwq5xni6ZCwrOXAJXXvEM3MDkiEoLIRJJz8kgUWXF3NNoEgrP0xpOVRXlKCIul0ctVfW8yNyw0+cLffORFbRejQ2lFDsBzjv/EfhzvTiupRuRdrFbIJiEAgJR29YTcyh1S6/wWsEpzi6KeuteE5+lkVmO51RNPZw0tLIKVO4RzcX4HqvlRDLDnTA1hvmhTuvdU/4TFbEkvZ1ZNr4Hw5gEfYTXRq7ttmU/YixGf1Lz1YOXWLoAi/bl8LYu9XSIfdkU4+fz8/Pz8PNaGZfz4++m/QTE/FizeO5Etf3ub6OMYmE13mVDwzSm0bQkgpW2vDp/G1Uf3eno2kV1bhc4Wq6tBK6cmWoZhWBaa9OptUGRc8MQ3DN8KmLj1IhClni996Ezwe7+rnxHWQi3UQi3UQi3UwrcQ/r+tkKsunLQUhqoLeVthpLyw7buCPAVeD3Q1sailsO5ukEoJiWwrNBQXWtBWOFe7ITK3tXCr9oCY36Z7XjgzlRaKSWshMJUbInJoL3SZys1w2YHQEQoL6akDoVR4REQ+7UAIG3WrabFdqpVQ4fGCrjsRykTValrZfttCWHkoUq3h/g90I7S5ooVIpx0Jy8/uvthgeK8wUnNINKPOhHUnJ7zCtOIBoafgqI8s6lD4zMbA3jvSOXQpVG9MrDyc1IEQtqpNE80tdCtsPLVB4Yj0QaGtVGdzuaWmvVCtAPyekPthYc0j2OP1oxvoQ6hOf4oL2Yvw/ISP8YDmCvoRqtIU71iceVYIRxWIdAf9CbM9kaOOhAb0KQR/7IE/3//fl9AbuUNteuK4OyFEZEwi3ryp3V4I4YhjBlIH+heOSCx2E/UrhMlYvQ39hmGE4NBRSlGcYCghTEaoqPgc8EkhTAa/b/os8FkhhANPiFGsYVghzAI26DDxAUMLwbaGi1ERQxheCLYx1EyDWVMYQwjSHeZ+BjVsGEcIsBcD9DfCbZXHdkLY9j5qYOk8uzGEEC767VKRb2FcIXh+n/0NIyGMLQQ49halIo0lKCCEbU/PESPdd5C7LoQQJX0M/gwnoIoQpNv9sNFuFOxaCLAlrOMaOu8oZ10JYdppDMcTB1QTAszNrmoqCtcGBYWw6qjDYbjtMFddCkEeO1jdQBp7oKoQYNK6GBk/dJuljoUgd61aI4qfKagtBJhYz0dxfHHoPD/dC0HOn2yNKFwPXkEIsPKfCXF44PSRmV6EAAfOHi7APxJeSAi2+1hrpEbYU076EgJMHqiqfLHuLR/9CQFO/L7BkZk7G15SCPbujuaINI76zESvQoAwvtEckfpOv1noWQjgWFeaI3JykPDiQoATNkQAyOhR9n75AYQgv2qNjO+8Aa4+hBDAu+xyGHejQa49jBAgqr4ujpnL1UBXHkoIEG3ys2UZjcPBrjucECByOUNCGF2GA151SCHAascpdcNBrzmsEGB6mg18xf8AZ4bYFeK18xgAAAAASUVORK5CYII=;" vertex="1" parent="1">
          <mxGeometry x="224.04" y="404.33" width="20.67" height="20.67" as="geometry" />
        </mxCell>
        <mxCell id="js2Lk6F2AfsSzgivTQNF-91" value="" style="shape=image;verticalLabelPosition=bottom;labelBackgroundColor=#ffffff;verticalAlign=top;aspect=fixed;imageAspect=0;image=data:image/png,iVBORw0KGgoAAAANSUhEUgAAAOEAAADhCAMAAAAJbSJIAAAAkFBMVEUAccb///8AaMMAb8XF1u3I2/AAbcUAa8QAZ8NEjNAAZcIkgMzk7vjh8PmItOAAcsex0OuLr93w9/z3/P681u5hmdVkntbV5fSxyOfq9fsvhM0AdsjS4/Rinde00Ozd6/dNktN0qNuRuuIRecmhxOYAX8B6q9yKteChweUxic+cweQfgcx0odd2qtzF1e2Ss94a2d+PAAAJ70lEQVR42u3dWZequBYA4OzsNgngUEUQZVBQbKvK2+f2//93/VCMCk5M0ZW8naWnyGemnUACgYGTN/QFycDXk4F8c+HcPL63cMKRTt5Z6C2QYGC/sdBnhBD2877CmBNCCOGbdxUuKflNdPeewk0GJES4byiUcQEkhC7fThhZjJQT9733Eh4okmpibPJGQtsV50BCUMzfRugknNQl6q/eQujFNQWYFiP9en2h/UUZaUxIE+e1hfI7oEiuJRRx+MLCU0LJzcRov8b+hNMvfqP8cqNpTF5OKCcu5ff5fuuqf7BfSRjtfcHIQwlpsAtfRDj99tkDxVcYGU++ItWFMvyyzGd4KZKb1lcoVRXK6LAJxPO8DCkS92OqnFBOTkuLU9aSl1VXir67jVQRes63m3DKu9FlSGSUo7F3vPGE0p6GH/t/ftCknGGXuhKTU3MRH0/O1JYDCaU3W4WTj/2fTewH1KSc92OrliYXNPBjd346/DVZrWYzT8ouhSvXdV3DMGLfspJkseBcUM4Y9k47cyLjnArBOSFBkliWZcSGYbiu64YthROTMY5FImMnLCfOmPlXWyElaieqhVqohVqohVqohVqohVqohVqohVqohVqohVqohVqohVqohVqohVqohVqohVqohVqohVqohVqohVqohVqohVqohVqohVqohW8uRGTsnh0p936vHyHSNNVvFOW/H17kDRk16Y/huu7yJ6Fm404+ZNQ0E8N1Xdf4QdO8uieuFyH6Tpr+1B2WwL/X6/V6vU2q+UIe7JxZ8ZftyZeFtT/fYlPZmjfb7qzmXan9CI3846TmwmbK+F/5MxSGc7kha3lZzsLY1ux5juYBjiOciGZhuYTY4qPur7vs3Oc37VtfsnGEsOP3CJlfv+/1TIji0JiR0YT2ZT29FDae7lUVMuvKztjRhOCYN4W4KG12ldNotYpmNUJu2OcbOqUKwstLXwhFcX7JdpkETFBGrM3argqZUfLYzs7wk8Dyjd12NbbQOx+tzoXF16OEpmM4IqP0T1mIVgGcLQVl6SZKRmmyn44qhAO9LuSnbMdt9bdAnhRNFTHvi+ydedYBcXNnb8YQztJfPWbXhdlZSQa7iMyKjG6zK06tmkvyIBljPAzTXEXVgONMiIv039MrIS6Lswuu6iNRHCWmiZL0SydxTRikPWkomsNsno0THnlwM3WvwqmZDdCVAK2pDKNmIcvOipTGg6e+9CxkPC2elbjWl6blI63G4jGzproXRCkhsuz4wzltFtJsONyaTdMlKyvCx0/X6FmIWRdYLp9zIcvP8jw1EPk+K8LH59t9C/NupPS9i1qa5NGYk9QejiXCK5OxkYXFebLFJOMiaiudrCf3NQdk4SL9CWacqCckZtrK5JW5hSidziG/Lg6pw2zqsaYqCvOjnR3aKMRFeXoo11bVmPdXlUURxquJjSUkPOtIssixZgaMQeWUS7mv5Jf9qZku4nFeSV8ujiUk2RHkXhpZ1a1iIFZn796m1K3y7CDTuPSboHffuuYQQkzSCPwgGoUEzXhW/cMJuxgsjLJwpo6Q8GNl8lArJITxeWUOb+dHJ6svJGbaV84oNgsJ0qBaVbPjr/NaWprlKibMo649vSIkBGlwKi+aZme0Z3Vgx9Rsh+Ux/QevCQlBivuirqaxXj5a7EujBZ4+ftNhpoIQWToahByvCn/LsVio45VVkcrF0rsf9O8PFYQE/fT7R3pDSAgRxbJhzMpRm1c3taBqCInY58HzTSFhQRbj/AZCeVT3o7AQedZcxG1haRFcVIaLrVBXWKwl7f5e3RQSM7sBE2C5jsMC1RUSmg52Ng9vC+l3pV6a2ULU2lRYiCxtXOuP20L+XQljimUAl6srLOrpWRkia25c6SodsiyCsS2mrpCIbeW/ZquJyfHiYH0U2XhBz5YTwf45myCrJES064SBvfKrDxtgvtCaL0MWq/qwq5xni6ZCwrOXAJXXvEM3MDkiEoLIRJJz8kgUWXF3NNoEgrP0xpOVRXlKCIul0ctVfW8yNyw0+cLffORFbRejQ2lFDsBzjv/EfhzvTiupRuRdrFbIJiEAgJR29YTcyh1S6/wWsEpzi6KeuteE5+lkVmO51RNPZw0tLIKVO4RzcX4HqvlRDLDnTA1hvmhTuvdU/4TFbEkvZ1ZNr4Hw5gEfYTXRq7ttmU/YixGf1Lz1YOXWLoAi/bl8LYu9XSIfdkU4+fz8/Pz8PNaGZfz4++m/QTE/FizeO5Etf3ub6OMYmE13mVDwzSm0bQkgpW2vDp/G1Uf3eno2kV1bhc4Wq6tBK6cmWoZhWBaa9OptUGRc8MQ3DN8KmLj1IhClni996Ezwe7+rnxHWQi3UQi3UQi3UwrcQ/r+tkKsunLQUhqoLeVthpLyw7buCPAVeD3Q1sailsO5ukEoJiWwrNBQXWtBWOFe7ITK3tXCr9oCY36Z7XjgzlRaKSWshMJUbInJoL3SZys1w2YHQEQoL6akDoVR4REQ+7UAIG3WrabFdqpVQ4fGCrjsRykTValrZfttCWHkoUq3h/g90I7S5ooVIpx0Jy8/uvthgeK8wUnNINKPOhHUnJ7zCtOIBoafgqI8s6lD4zMbA3jvSOXQpVG9MrDyc1IEQtqpNE80tdCtsPLVB4Yj0QaGtVGdzuaWmvVCtAPyekPthYc0j2OP1oxvoQ6hOf4oL2Yvw/ISP8YDmCvoRqtIU71iceVYIRxWIdAf9CbM9kaOOhAb0KQR/7IE/3//fl9AbuUNteuK4OyFEZEwi3ryp3V4I4YhjBlIH+heOSCx2E/UrhMlYvQ39hmGE4NBRSlGcYCghTEaoqPgc8EkhTAa/b/os8FkhhANPiFGsYVghzAI26DDxAUMLwbaGi1ERQxheCLYx1EyDWVMYQwjSHeZ+BjVsGEcIsBcD9DfCbZXHdkLY9j5qYOk8uzGEEC767VKRb2FcIXh+n/0NIyGMLQQ49halIo0lKCCEbU/PESPdd5C7LoQQJX0M/gwnoIoQpNv9sNFuFOxaCLAlrOMaOu8oZ10JYdppDMcTB1QTAszNrmoqCtcGBYWw6qjDYbjtMFddCkEeO1jdQBp7oKoQYNK6GBk/dJuljoUgd61aI4qfKagtBJhYz0dxfHHoPD/dC0HOn2yNKFwPXkEIsPKfCXF44PSRmV6EAAfOHi7APxJeSAi2+1hrpEbYU076EgJMHqiqfLHuLR/9CQFO/L7BkZk7G15SCPbujuaINI76zESvQoAwvtEckfpOv1noWQjgWFeaI3JykPDiQoATNkQAyOhR9n75AYQgv2qNjO+8Aa4+hBDAu+xyGHejQa49jBAgqr4ujpnL1UBXHkoIEG3ys2UZjcPBrjucECByOUNCGF2GA151SCHAascpdcNBrzmsEGB6mg18xf8AZ4bYFeK18xgAAAAASUVORK5CYII=;" vertex="1" parent="1">
          <mxGeometry x="311.7399999999999" y="404.15" width="26.52" height="26.52" as="geometry" />
        </mxCell>
        <mxCell id="js2Lk6F2AfsSzgivTQNF-92" value="" style="whiteSpace=wrap;html=1;strokeColor=#001DBC;fontColor=#ffffff;fillColor=none;" vertex="1" parent="1">
          <mxGeometry x="298.87" y="401.59" width="61.13" height="55" as="geometry" />
        </mxCell>
        <mxCell id="js2Lk6F2AfsSzgivTQNF-93" value="" style="whiteSpace=wrap;html=1;strokeColor=#001DBC;fontColor=#ffffff;fillColor=none;" vertex="1" parent="1">
          <mxGeometry x="210" y="401.59" width="70" height="57.41" as="geometry" />
        </mxCell>
        <mxCell id="js2Lk6F2AfsSzgivTQNF-94" value="&lt;font style=&quot;font-size: 6px&quot; color=&quot;#66b2ff&quot;&gt;ITSecTest-LVProd-VM&lt;/font&gt;" style="text;html=1;resizable=0;autosize=1;align=center;verticalAlign=middle;points=[];fillColor=none;strokeColor=none;rounded=0;dashed=1;" vertex="1" parent="1">
          <mxGeometry x="213.48000000000002" y="430.67" width="70" height="20" as="geometry" />
        </mxCell>
        <mxCell id="js2Lk6F2AfsSzgivTQNF-95" value="&lt;font style=&quot;font-size: 6px&quot; color=&quot;#66b2ff&quot;&gt;lv-prod-apps-subnet&lt;/font&gt;" style="text;html=1;resizable=0;autosize=1;align=center;verticalAlign=middle;points=[];fillColor=none;strokeColor=none;rounded=0;dashed=1;" vertex="1" parent="1">
          <mxGeometry x="295.90999999999997" y="430.67" width="70" height="20" as="geometry" />
        </mxCell>
        <mxCell id="js2Lk6F2AfsSzgivTQNF-96" value="" style="whiteSpace=wrap;html=1;strokeColor=#001DBC;fontColor=#ffffff;fillColor=none;" vertex="1" parent="1">
          <mxGeometry x="205.76" y="234.5" width="70" height="46.25" as="geometry" />
        </mxCell>
        <mxCell id="js2Lk6F2AfsSzgivTQNF-97" value="" style="whiteSpace=wrap;html=1;strokeColor=#001DBC;fontColor=#ffffff;fillColor=none;" vertex="1" parent="1">
          <mxGeometry x="196.87000000000003" y="156.31" width="63.13" height="37.5" as="geometry" />
        </mxCell>
        <mxCell id="js2Lk6F2AfsSzgivTQNF-98" value="&lt;font style=&quot;font-size: 6px&quot; color=&quot;#66b2ff&quot;&gt;lv-dev-vnet-useast2&lt;/font&gt;" style="text;html=1;resizable=0;autosize=1;align=center;verticalAlign=middle;points=[];fillColor=none;strokeColor=none;rounded=0;dashed=1;" vertex="1" parent="1">
          <mxGeometry x="275.76" y="277.5" width="70" height="20" as="geometry" />
        </mxCell>
        <mxCell id="js2Lk6F2AfsSzgivTQNF-99" value="&lt;font style=&quot;font-size: 6px&quot; color=&quot;#66b2ff&quot;&gt;8-VMs&lt;/font&gt;" style="text;html=1;resizable=0;autosize=1;align=center;verticalAlign=middle;points=[];fillColor=none;strokeColor=none;rounded=0;dashed=1;" vertex="1" parent="1">
          <mxGeometry x="329.4" y="173.81" width="30" height="20" as="geometry" />
        </mxCell>
        <mxCell id="js2Lk6F2AfsSzgivTQNF-100" value="" style="aspect=fixed;html=1;points=[];align=center;image;fontSize=12;image=img/lib/azure2/networking/Virtual_Networks.svg;fillColor=none;" vertex="1" parent="1">
          <mxGeometry x="341.77" y="289.85" width="17" height="10.15" as="geometry" />
        </mxCell>
        <mxCell id="js2Lk6F2AfsSzgivTQNF-176" style="edgeStyle=orthogonalEdgeStyle;rounded=0;orthogonalLoop=1;jettySize=auto;html=1;entryX=0;entryY=0.5;entryDx=0;entryDy=0;strokeColor=#001DBC;fillColor=#0050ef;" edge="1" parent="1" source="js2Lk6F2AfsSzgivTQNF-101" target="js2Lk6F2AfsSzgivTQNF-36">
          <mxGeometry relative="1" as="geometry" />
        </mxCell>
        <mxCell id="js2Lk6F2AfsSzgivTQNF-101" value="" style="whiteSpace=wrap;html=1;dashed=1;strokeColor=#001DBC;fontColor=#ffffff;fillColor=none;" vertex="1" parent="1">
          <mxGeometry x="187.58999999999997" y="147.5" width="200" height="60" as="geometry" />
        </mxCell>
        <mxCell id="js2Lk6F2AfsSzgivTQNF-108" value="" style="whiteSpace=wrap;html=1;strokeColor=#001DBC;fontColor=#ffffff;fillColor=none;strokeWidth=2;" vertex="1" parent="1">
          <mxGeometry x="181.73999999999995" y="379.09000000000003" width="216.52" height="100" as="geometry" />
        </mxCell>
        <mxCell id="js2Lk6F2AfsSzgivTQNF-109" value="" style="aspect=fixed;html=1;points=[];align=center;image;fontSize=12;image=img/lib/azure2/general/Resource_Groups.svg;" vertex="1" parent="1">
          <mxGeometry x="172.59" y="377.6" width="20" height="18.81" as="geometry" />
        </mxCell>
        <mxCell id="js2Lk6F2AfsSzgivTQNF-110" value="&lt;font style=&quot;font-size: 7px&quot; color=&quot;#66b2ff&quot;&gt;lv-prod-network&lt;/font&gt;" style="text;html=1;resizable=0;autosize=1;align=center;verticalAlign=middle;points=[];fillColor=none;strokeColor=none;rounded=0;dashed=1;" vertex="1" parent="1">
          <mxGeometry x="187.59" y="374.99999999999994" width="60" height="20" as="geometry" />
        </mxCell>
        <mxCell id="js2Lk6F2AfsSzgivTQNF-115" value="" style="shape=image;verticalLabelPosition=bottom;labelBackgroundColor=#ffffff;verticalAlign=top;aspect=fixed;imageAspect=0;image=data:image/png,iVBORw0KGgoAAAANSUhEUgAAAOEAAADhCAMAAAAJbSJIAAAAkFBMVEUAccb///8AaMMAb8XF1u3I2/AAbcUAa8QAZ8NEjNAAZcIkgMzk7vjh8PmItOAAcsex0OuLr93w9/z3/P681u5hmdVkntbV5fSxyOfq9fsvhM0AdsjS4/Rinde00Ozd6/dNktN0qNuRuuIRecmhxOYAX8B6q9yKteChweUxic+cweQfgcx0odd2qtzF1e2Ss94a2d+PAAAJ70lEQVR42u3dWZequBYA4OzsNgngUEUQZVBQbKvK2+f2//93/VCMCk5M0ZW8naWnyGemnUACgYGTN/QFycDXk4F8c+HcPL63cMKRTt5Z6C2QYGC/sdBnhBD2877CmBNCCOGbdxUuKflNdPeewk0GJES4byiUcQEkhC7fThhZjJQT9733Eh4okmpibPJGQtsV50BCUMzfRugknNQl6q/eQujFNQWYFiP9en2h/UUZaUxIE+e1hfI7oEiuJRRx+MLCU0LJzcRov8b+hNMvfqP8cqNpTF5OKCcu5ff5fuuqf7BfSRjtfcHIQwlpsAtfRDj99tkDxVcYGU++ItWFMvyyzGd4KZKb1lcoVRXK6LAJxPO8DCkS92OqnFBOTkuLU9aSl1VXir67jVQRes63m3DKu9FlSGSUo7F3vPGE0p6GH/t/ftCknGGXuhKTU3MRH0/O1JYDCaU3W4WTj/2fTewH1KSc92OrliYXNPBjd346/DVZrWYzT8ouhSvXdV3DMGLfspJkseBcUM4Y9k47cyLjnArBOSFBkliWZcSGYbiu64YthROTMY5FImMnLCfOmPlXWyElaieqhVqohVqohVqohVqohVqohVqohVqohVqohVqohVqohVqohVqohVqohVqohVqohVqohVqohVqohVqohVqohVqohVqohVqohW8uRGTsnh0p936vHyHSNNVvFOW/H17kDRk16Y/huu7yJ6Fm404+ZNQ0E8N1Xdf4QdO8uieuFyH6Tpr+1B2WwL/X6/V6vU2q+UIe7JxZ8ZftyZeFtT/fYlPZmjfb7qzmXan9CI3846TmwmbK+F/5MxSGc7kha3lZzsLY1ux5juYBjiOciGZhuYTY4qPur7vs3Oc37VtfsnGEsOP3CJlfv+/1TIji0JiR0YT2ZT29FDae7lUVMuvKztjRhOCYN4W4KG12ldNotYpmNUJu2OcbOqUKwstLXwhFcX7JdpkETFBGrM3argqZUfLYzs7wk8Dyjd12NbbQOx+tzoXF16OEpmM4IqP0T1mIVgGcLQVl6SZKRmmyn44qhAO9LuSnbMdt9bdAnhRNFTHvi+ydedYBcXNnb8YQztJfPWbXhdlZSQa7iMyKjG6zK06tmkvyIBljPAzTXEXVgONMiIv039MrIS6Lswuu6iNRHCWmiZL0SydxTRikPWkomsNsno0THnlwM3WvwqmZDdCVAK2pDKNmIcvOipTGg6e+9CxkPC2elbjWl6blI63G4jGzproXRCkhsuz4wzltFtJsONyaTdMlKyvCx0/X6FmIWRdYLp9zIcvP8jw1EPk+K8LH59t9C/NupPS9i1qa5NGYk9QejiXCK5OxkYXFebLFJOMiaiudrCf3NQdk4SL9CWacqCckZtrK5JW5hSidziG/Lg6pw2zqsaYqCvOjnR3aKMRFeXoo11bVmPdXlUURxquJjSUkPOtIssixZgaMQeWUS7mv5Jf9qZku4nFeSV8ujiUk2RHkXhpZ1a1iIFZn796m1K3y7CDTuPSboHffuuYQQkzSCPwgGoUEzXhW/cMJuxgsjLJwpo6Q8GNl8lArJITxeWUOb+dHJ6svJGbaV84oNgsJ0qBaVbPjr/NaWprlKibMo649vSIkBGlwKi+aZme0Z3Vgx9Rsh+Ux/QevCQlBivuirqaxXj5a7EujBZ4+ftNhpoIQWToahByvCn/LsVio45VVkcrF0rsf9O8PFYQE/fT7R3pDSAgRxbJhzMpRm1c3taBqCInY58HzTSFhQRbj/AZCeVT3o7AQedZcxG1haRFcVIaLrVBXWKwl7f5e3RQSM7sBE2C5jsMC1RUSmg52Ng9vC+l3pV6a2ULU2lRYiCxtXOuP20L+XQljimUAl6srLOrpWRkia25c6SodsiyCsS2mrpCIbeW/ZquJyfHiYH0U2XhBz5YTwf45myCrJES064SBvfKrDxtgvtCaL0MWq/qwq5xni6ZCwrOXAJXXvEM3MDkiEoLIRJJz8kgUWXF3NNoEgrP0xpOVRXlKCIul0ctVfW8yNyw0+cLffORFbRejQ2lFDsBzjv/EfhzvTiupRuRdrFbIJiEAgJR29YTcyh1S6/wWsEpzi6KeuteE5+lkVmO51RNPZw0tLIKVO4RzcX4HqvlRDLDnTA1hvmhTuvdU/4TFbEkvZ1ZNr4Hw5gEfYTXRq7ttmU/YixGf1Lz1YOXWLoAi/bl8LYu9XSIfdkU4+fz8/Pz8PNaGZfz4++m/QTE/FizeO5Etf3ub6OMYmE13mVDwzSm0bQkgpW2vDp/G1Uf3eno2kV1bhc4Wq6tBK6cmWoZhWBaa9OptUGRc8MQ3DN8KmLj1IhClni996Ezwe7+rnxHWQi3UQi3UQi3UwrcQ/r+tkKsunLQUhqoLeVthpLyw7buCPAVeD3Q1sailsO5ukEoJiWwrNBQXWtBWOFe7ITK3tXCr9oCY36Z7XjgzlRaKSWshMJUbInJoL3SZys1w2YHQEQoL6akDoVR4REQ+7UAIG3WrabFdqpVQ4fGCrjsRykTValrZfttCWHkoUq3h/g90I7S5ooVIpx0Jy8/uvthgeK8wUnNINKPOhHUnJ7zCtOIBoafgqI8s6lD4zMbA3jvSOXQpVG9MrDyc1IEQtqpNE80tdCtsPLVB4Yj0QaGtVGdzuaWmvVCtAPyekPthYc0j2OP1oxvoQ6hOf4oL2Yvw/ISP8YDmCvoRqtIU71iceVYIRxWIdAf9CbM9kaOOhAb0KQR/7IE/3//fl9AbuUNteuK4OyFEZEwi3ryp3V4I4YhjBlIH+heOSCx2E/UrhMlYvQ39hmGE4NBRSlGcYCghTEaoqPgc8EkhTAa/b/os8FkhhANPiFGsYVghzAI26DDxAUMLwbaGi1ERQxheCLYx1EyDWVMYQwjSHeZ+BjVsGEcIsBcD9DfCbZXHdkLY9j5qYOk8uzGEEC767VKRb2FcIXh+n/0NIyGMLQQ49halIo0lKCCEbU/PESPdd5C7LoQQJX0M/gwnoIoQpNv9sNFuFOxaCLAlrOMaOu8oZ10JYdppDMcTB1QTAszNrmoqCtcGBYWw6qjDYbjtMFddCkEeO1jdQBp7oKoQYNK6GBk/dJuljoUgd61aI4qfKagtBJhYz0dxfHHoPD/dC0HOn2yNKFwPXkEIsPKfCXF44PSRmV6EAAfOHi7APxJeSAi2+1hrpEbYU076EgJMHqiqfLHuLR/9CQFO/L7BkZk7G15SCPbujuaINI76zESvQoAwvtEckfpOv1noWQjgWFeaI3JykPDiQoATNkQAyOhR9n75AYQgv2qNjO+8Aa4+hBDAu+xyGHejQa49jBAgqr4ujpnL1UBXHkoIEG3ys2UZjcPBrjucECByOUNCGF2GA151SCHAascpdcNBrzmsEGB6mg18xf8AZ4bYFeK18xgAAAAASUVORK5CYII=;" vertex="1" parent="1">
          <mxGeometry x="213.48000000000002" y="166.88" width="16.25" height="16.25" as="geometry" />
        </mxCell>
        <mxCell id="js2Lk6F2AfsSzgivTQNF-116" value="" style="aspect=fixed;html=1;points=[];align=center;image;fontSize=12;image=img/lib/azure2/compute/Virtual_Machine.svg;fillColor=none;" vertex="1" parent="1">
          <mxGeometry x="314.80999999999995" y="161.25" width="26.96" height="25" as="geometry" />
        </mxCell>
        <mxCell id="js2Lk6F2AfsSzgivTQNF-121" value="&lt;font style=&quot;font-size: 6px&quot; color=&quot;#66b2ff&quot;&gt;VNet-Peering&lt;/font&gt;" style="text;html=1;resizable=0;autosize=1;align=center;verticalAlign=middle;points=[];fillColor=none;strokeColor=none;rounded=0;dashed=1;" vertex="1" parent="1">
          <mxGeometry x="380" y="156.25" width="50" height="20" as="geometry" />
        </mxCell>
        <mxCell id="js2Lk6F2AfsSzgivTQNF-122" value="&lt;font style=&quot;font-size: 6px&quot; color=&quot;#66b2ff&quot;&gt;prod-vnet-useast2-fw&lt;/font&gt;" style="text;html=1;resizable=0;autosize=1;align=center;verticalAlign=middle;points=[];fillColor=none;strokeColor=none;rounded=0;dashed=1;" vertex="1" parent="1">
          <mxGeometry x="470" y="419" width="70" height="20" as="geometry" />
        </mxCell>
        <mxCell id="js2Lk6F2AfsSzgivTQNF-126" value="" style="whiteSpace=wrap;html=1;dashed=1;strokeColor=#001DBC;fontColor=#ffffff;fillColor=none;" vertex="1" parent="1">
          <mxGeometry x="460.81" y="247.50000000000003" width="78.38" height="30" as="geometry" />
        </mxCell>
        <mxCell id="js2Lk6F2AfsSzgivTQNF-134" value="" style="whiteSpace=wrap;html=1;dashed=1;strokeColor=#001DBC;fontColor=#ffffff;fillColor=none;" vertex="1" parent="1">
          <mxGeometry x="460.81" y="415.34" width="78.38" height="30" as="geometry" />
        </mxCell>
        <mxCell id="js2Lk6F2AfsSzgivTQNF-135" value="" style="aspect=fixed;html=1;points=[];align=center;image;fontSize=12;image=img/lib/azure2/networking/Virtual_Networks.svg;dashed=1;fillColor=none;" vertex="1" parent="1">
          <mxGeometry x="522.4399999999999" y="272.5" width="16.75" height="10" as="geometry" />
        </mxCell>
        <mxCell id="js2Lk6F2AfsSzgivTQNF-138" value="" style="aspect=fixed;html=1;points=[];align=center;image;fontSize=12;image=img/lib/azure2/networking/Virtual_Networks.svg;dashed=1;fillColor=none;" vertex="1" parent="1">
          <mxGeometry x="525.7499999999999" y="440.67" width="16.75" height="10" as="geometry" />
        </mxCell>
        <mxCell id="js2Lk6F2AfsSzgivTQNF-140" value="&lt;font style=&quot;font-size: 6px&quot; color=&quot;#66b2ff&quot;&gt;vnet-us-east2-fw&lt;/font&gt;" style="text;html=1;resizable=0;autosize=1;align=center;verticalAlign=middle;points=[];fillColor=none;strokeColor=none;rounded=0;dashed=1;" vertex="1" parent="1">
          <mxGeometry x="465.75" y="250" width="60" height="20" as="geometry" />
        </mxCell>
        <mxCell id="js2Lk6F2AfsSzgivTQNF-144" value="" style="whiteSpace=wrap;html=1;strokeWidth=3;strokeColor=#001DBC;fontColor=#ffffff;fillColor=none;" vertex="1" parent="1">
          <mxGeometry x="110" y="80" width="490" height="440" as="geometry" />
        </mxCell>
        <mxCell id="js2Lk6F2AfsSzgivTQNF-145" value="" style="aspect=fixed;html=1;points=[];align=center;image;fontSize=12;image=img/lib/azure2/general/Subscriptions.svg;strokeWidth=3;fillColor=none;" vertex="1" parent="1">
          <mxGeometry x="151.39000000000001" y="110" width="16.2" height="26.15" as="geometry" />
        </mxCell>
        <mxCell id="js2Lk6F2AfsSzgivTQNF-146" value="" style="whiteSpace=wrap;html=1;strokeWidth=2;strokeColor=#006EAF;fontColor=#ffffff;fillColor=none;" vertex="1" parent="1">
          <mxGeometry x="160" y="106.97" width="247.57" height="213.03" as="geometry" />
        </mxCell>
        <mxCell id="js2Lk6F2AfsSzgivTQNF-147" value="&lt;b&gt;&lt;font style=&quot;font-size: 14px&quot; color=&quot;#0000cc&quot;&gt;Lakeview&lt;/font&gt;&lt;/b&gt;" style="text;html=1;resizable=0;autosize=1;align=center;verticalAlign=middle;points=[];fillColor=none;strokeColor=none;rounded=0;" vertex="1" parent="1">
          <mxGeometry x="236.87000000000003" y="55" width="80" height="20" as="geometry" />
        </mxCell>
        <mxCell id="js2Lk6F2AfsSzgivTQNF-148" value="" style="aspect=fixed;html=1;points=[];align=center;image;fontSize=12;image=img/lib/azure2/compute/Virtual_Machine.svg;" vertex="1" parent="1">
          <mxGeometry x="241.74" y="420" width="20.49" height="19" as="geometry" />
        </mxCell>
        <mxCell id="js2Lk6F2AfsSzgivTQNF-150" value="&lt;font style=&quot;font-size: 6px&quot; color=&quot;#66b2ff&quot;&gt;Lv-prod-subnet-useast2&lt;/font&gt;" style="text;html=1;resizable=0;autosize=1;align=center;verticalAlign=middle;points=[];fillColor=none;strokeColor=none;rounded=0;dashed=1;" vertex="1" parent="1">
          <mxGeometry x="205.76000000000002" y="439" width="80" height="20" as="geometry" />
        </mxCell>
        <mxCell id="js2Lk6F2AfsSzgivTQNF-154" value="&lt;font style=&quot;font-size: 6px&quot; color=&quot;#66b2ff&quot;&gt;VNet-Peering&lt;/font&gt;" style="text;html=1;resizable=0;autosize=1;align=center;verticalAlign=middle;points=[];fillColor=none;strokeColor=none;rounded=0;dashed=1;" vertex="1" parent="1">
          <mxGeometry x="380" y="415" width="50" height="20" as="geometry" />
        </mxCell>
        <mxCell id="js2Lk6F2AfsSzgivTQNF-155" value="" style="aspect=fixed;html=1;points=[];align=center;image;fontSize=12;image=img/lib/azure2/general/Subscriptions.svg;strokeWidth=3;fillColor=none;" vertex="1" parent="1">
          <mxGeometry x="153.8" y="354.93" width="16.2" height="26.15" as="geometry" />
        </mxCell>
        <mxCell id="js2Lk6F2AfsSzgivTQNF-173" style="edgeStyle=orthogonalEdgeStyle;rounded=0;orthogonalLoop=1;jettySize=auto;html=1;entryX=0;entryY=0.5;entryDx=0;entryDy=0;strokeColor=#001DBC;fillColor=#0050ef;" edge="1" parent="1" source="js2Lk6F2AfsSzgivTQNF-65" target="js2Lk6F2AfsSzgivTQNF-126">
          <mxGeometry relative="1" as="geometry" />
        </mxCell>
        <mxCell id="js2Lk6F2AfsSzgivTQNF-65" value="" style="whiteSpace=wrap;html=1;dashed=1;strokeColor=#001DBC;fontColor=#ffffff;fillColor=none;" vertex="1" parent="1">
          <mxGeometry x="190" y="229.85" width="180" height="64.92" as="geometry" />
        </mxCell>
        <mxCell id="js2Lk6F2AfsSzgivTQNF-161" value="&lt;font color=&quot;#66b2ff&quot; size=&quot;1&quot;&gt;&lt;b&gt;LakeView-Prod&lt;/b&gt;&lt;/font&gt;" style="text;html=1;resizable=0;autosize=1;align=center;verticalAlign=middle;points=[];fillColor=none;strokeColor=none;rounded=0;dashed=1;" vertex="1" parent="1">
          <mxGeometry x="159.99999999999994" y="356.41" width="90" height="20" as="geometry" />
        </mxCell>
        <mxCell id="js2Lk6F2AfsSzgivTQNF-162" value="" style="shape=image;verticalLabelPosition=bottom;labelBackgroundColor=#ffffff;verticalAlign=top;aspect=fixed;imageAspect=0;image=data:image/png,iVBORw0KGgoAAAANSUhEUgAAAOEAAADhCAMAAAAJbSJIAAAAkFBMVEUAccb///8AaMMAb8XF1u3I2/AAbcUAa8QAZ8NEjNAAZcIkgMzk7vjh8PmItOAAcsex0OuLr93w9/z3/P681u5hmdVkntbV5fSxyOfq9fsvhM0AdsjS4/Rinde00Ozd6/dNktN0qNuRuuIRecmhxOYAX8B6q9yKteChweUxic+cweQfgcx0odd2qtzF1e2Ss94a2d+PAAAJ70lEQVR42u3dWZequBYA4OzsNgngUEUQZVBQbKvK2+f2//93/VCMCk5M0ZW8naWnyGemnUACgYGTN/QFycDXk4F8c+HcPL63cMKRTt5Z6C2QYGC/sdBnhBD2877CmBNCCOGbdxUuKflNdPeewk0GJES4byiUcQEkhC7fThhZjJQT9733Eh4okmpibPJGQtsV50BCUMzfRugknNQl6q/eQujFNQWYFiP9en2h/UUZaUxIE+e1hfI7oEiuJRRx+MLCU0LJzcRov8b+hNMvfqP8cqNpTF5OKCcu5ff5fuuqf7BfSRjtfcHIQwlpsAtfRDj99tkDxVcYGU++ItWFMvyyzGd4KZKb1lcoVRXK6LAJxPO8DCkS92OqnFBOTkuLU9aSl1VXir67jVQRes63m3DKu9FlSGSUo7F3vPGE0p6GH/t/ftCknGGXuhKTU3MRH0/O1JYDCaU3W4WTj/2fTewH1KSc92OrliYXNPBjd346/DVZrWYzT8ouhSvXdV3DMGLfspJkseBcUM4Y9k47cyLjnArBOSFBkliWZcSGYbiu64YthROTMY5FImMnLCfOmPlXWyElaieqhVqohVqohVqohVqohVqohVqohVqohVqohVqohVqohVqohVqohVqohVqohVqohVqohVqohVqohVqohVqohVqohVqohVqohW8uRGTsnh0p936vHyHSNNVvFOW/H17kDRk16Y/huu7yJ6Fm404+ZNQ0E8N1Xdf4QdO8uieuFyH6Tpr+1B2WwL/X6/V6vU2q+UIe7JxZ8ZftyZeFtT/fYlPZmjfb7qzmXan9CI3846TmwmbK+F/5MxSGc7kha3lZzsLY1ux5juYBjiOciGZhuYTY4qPur7vs3Oc37VtfsnGEsOP3CJlfv+/1TIji0JiR0YT2ZT29FDae7lUVMuvKztjRhOCYN4W4KG12ldNotYpmNUJu2OcbOqUKwstLXwhFcX7JdpkETFBGrM3argqZUfLYzs7wk8Dyjd12NbbQOx+tzoXF16OEpmM4IqP0T1mIVgGcLQVl6SZKRmmyn44qhAO9LuSnbMdt9bdAnhRNFTHvi+ydedYBcXNnb8YQztJfPWbXhdlZSQa7iMyKjG6zK06tmkvyIBljPAzTXEXVgONMiIv039MrIS6Lswuu6iNRHCWmiZL0SydxTRikPWkomsNsno0THnlwM3WvwqmZDdCVAK2pDKNmIcvOipTGg6e+9CxkPC2elbjWl6blI63G4jGzproXRCkhsuz4wzltFtJsONyaTdMlKyvCx0/X6FmIWRdYLp9zIcvP8jw1EPk+K8LH59t9C/NupPS9i1qa5NGYk9QejiXCK5OxkYXFebLFJOMiaiudrCf3NQdk4SL9CWacqCckZtrK5JW5hSidziG/Lg6pw2zqsaYqCvOjnR3aKMRFeXoo11bVmPdXlUURxquJjSUkPOtIssixZgaMQeWUS7mv5Jf9qZku4nFeSV8ujiUk2RHkXhpZ1a1iIFZn796m1K3y7CDTuPSboHffuuYQQkzSCPwgGoUEzXhW/cMJuxgsjLJwpo6Q8GNl8lArJITxeWUOb+dHJ6svJGbaV84oNgsJ0qBaVbPjr/NaWprlKibMo649vSIkBGlwKi+aZme0Z3Vgx9Rsh+Ux/QevCQlBivuirqaxXj5a7EujBZ4+ftNhpoIQWToahByvCn/LsVio45VVkcrF0rsf9O8PFYQE/fT7R3pDSAgRxbJhzMpRm1c3taBqCInY58HzTSFhQRbj/AZCeVT3o7AQedZcxG1haRFcVIaLrVBXWKwl7f5e3RQSM7sBE2C5jsMC1RUSmg52Ng9vC+l3pV6a2ULU2lRYiCxtXOuP20L+XQljimUAl6srLOrpWRkia25c6SodsiyCsS2mrpCIbeW/ZquJyfHiYH0U2XhBz5YTwf45myCrJES064SBvfKrDxtgvtCaL0MWq/qwq5xni6ZCwrOXAJXXvEM3MDkiEoLIRJJz8kgUWXF3NNoEgrP0xpOVRXlKCIul0ctVfW8yNyw0+cLffORFbRejQ2lFDsBzjv/EfhzvTiupRuRdrFbIJiEAgJR29YTcyh1S6/wWsEpzi6KeuteE5+lkVmO51RNPZw0tLIKVO4RzcX4HqvlRDLDnTA1hvmhTuvdU/4TFbEkvZ1ZNr4Hw5gEfYTXRq7ttmU/YixGf1Lz1YOXWLoAi/bl8LYu9XSIfdkU4+fz8/Pz8PNaGZfz4++m/QTE/FizeO5Etf3ub6OMYmE13mVDwzSm0bQkgpW2vDp/G1Uf3eno2kV1bhc4Wq6tBK6cmWoZhWBaa9OptUGRc8MQ3DN8KmLj1IhClni996Ezwe7+rnxHWQi3UQi3UQi3UwrcQ/r+tkKsunLQUhqoLeVthpLyw7buCPAVeD3Q1sailsO5ukEoJiWwrNBQXWtBWOFe7ITK3tXCr9oCY36Z7XjgzlRaKSWshMJUbInJoL3SZys1w2YHQEQoL6akDoVR4REQ+7UAIG3WrabFdqpVQ4fGCrjsRykTValrZfttCWHkoUq3h/g90I7S5ooVIpx0Jy8/uvthgeK8wUnNINKPOhHUnJ7zCtOIBoafgqI8s6lD4zMbA3jvSOXQpVG9MrDyc1IEQtqpNE80tdCtsPLVB4Yj0QaGtVGdzuaWmvVCtAPyekPthYc0j2OP1oxvoQ6hOf4oL2Yvw/ISP8YDmCvoRqtIU71iceVYIRxWIdAf9CbM9kaOOhAb0KQR/7IE/3//fl9AbuUNteuK4OyFEZEwi3ryp3V4I4YhjBlIH+heOSCx2E/UrhMlYvQ39hmGE4NBRSlGcYCghTEaoqPgc8EkhTAa/b/os8FkhhANPiFGsYVghzAI26DDxAUMLwbaGi1ERQxheCLYx1EyDWVMYQwjSHeZ+BjVsGEcIsBcD9DfCbZXHdkLY9j5qYOk8uzGEEC767VKRb2FcIXh+n/0NIyGMLQQ49halIo0lKCCEbU/PESPdd5C7LoQQJX0M/gwnoIoQpNv9sNFuFOxaCLAlrOMaOu8oZ10JYdppDMcTB1QTAszNrmoqCtcGBYWw6qjDYbjtMFddCkEeO1jdQBp7oKoQYNK6GBk/dJuljoUgd61aI4qfKagtBJhYz0dxfHHoPD/dC0HOn2yNKFwPXkEIsPKfCXF44PSRmV6EAAfOHi7APxJeSAi2+1hrpEbYU076EgJMHqiqfLHuLR/9CQFO/L7BkZk7G15SCPbujuaINI76zESvQoAwvtEckfpOv1noWQjgWFeaI3JykPDiQoATNkQAyOhR9n75AYQgv2qNjO+8Aa4+hBDAu+xyGHejQa49jBAgqr4ujpnL1UBXHkoIEG3ys2UZjcPBrjucECByOUNCGF2GA151SCHAascpdcNBrzmsEGB6mg18xf8AZ4bYFeK18xgAAAAASUVORK5CYII=;" vertex="1" parent="1">
          <mxGeometry x="236.87" y="248.67" width="16.25" height="16.25" as="geometry" />
        </mxCell>
        <mxCell id="js2Lk6F2AfsSzgivTQNF-163" value="&lt;font style=&quot;font-size: 6px&quot; color=&quot;#66b2ff&quot;&gt;lv-dev-apps-subnet&lt;/font&gt;" style="text;html=1;resizable=0;autosize=1;align=center;verticalAlign=middle;points=[];fillColor=none;strokeColor=none;rounded=0;dashed=1;" vertex="1" parent="1">
          <mxGeometry x="210.76999999999998" y="262.5" width="70" height="20" as="geometry" />
        </mxCell>
        <mxCell id="js2Lk6F2AfsSzgivTQNF-164" value="" style="shape=image;verticalLabelPosition=bottom;labelBackgroundColor=#ffffff;verticalAlign=top;aspect=fixed;imageAspect=0;image=data:image/png,iVBORw0KGgoAAAANSUhEUgAAAOEAAADhCAMAAAAJbSJIAAAAkFBMVEUAccb///8AaMMAb8XF1u3I2/AAbcUAa8QAZ8NEjNAAZcIkgMzk7vjh8PmItOAAcsex0OuLr93w9/z3/P681u5hmdVkntbV5fSxyOfq9fsvhM0AdsjS4/Rinde00Ozd6/dNktN0qNuRuuIRecmhxOYAX8B6q9yKteChweUxic+cweQfgcx0odd2qtzF1e2Ss94a2d+PAAAJ70lEQVR42u3dWZequBYA4OzsNgngUEUQZVBQbKvK2+f2//93/VCMCk5M0ZW8naWnyGemnUACgYGTN/QFycDXk4F8c+HcPL63cMKRTt5Z6C2QYGC/sdBnhBD2877CmBNCCOGbdxUuKflNdPeewk0GJES4byiUcQEkhC7fThhZjJQT9733Eh4okmpibPJGQtsV50BCUMzfRugknNQl6q/eQujFNQWYFiP9en2h/UUZaUxIE+e1hfI7oEiuJRRx+MLCU0LJzcRov8b+hNMvfqP8cqNpTF5OKCcu5ff5fuuqf7BfSRjtfcHIQwlpsAtfRDj99tkDxVcYGU++ItWFMvyyzGd4KZKb1lcoVRXK6LAJxPO8DCkS92OqnFBOTkuLU9aSl1VXir67jVQRes63m3DKu9FlSGSUo7F3vPGE0p6GH/t/ftCknGGXuhKTU3MRH0/O1JYDCaU3W4WTj/2fTewH1KSc92OrliYXNPBjd346/DVZrWYzT8ouhSvXdV3DMGLfspJkseBcUM4Y9k47cyLjnArBOSFBkliWZcSGYbiu64YthROTMY5FImMnLCfOmPlXWyElaieqhVqohVqohVqohVqohVqohVqohVqohVqohVqohVqohVqohVqohVqohVqohVqohVqohVqohVqohVqohVqohVqohVqohVqohW8uRGTsnh0p936vHyHSNNVvFOW/H17kDRk16Y/huu7yJ6Fm404+ZNQ0E8N1Xdf4QdO8uieuFyH6Tpr+1B2WwL/X6/V6vU2q+UIe7JxZ8ZftyZeFtT/fYlPZmjfb7qzmXan9CI3846TmwmbK+F/5MxSGc7kha3lZzsLY1ux5juYBjiOciGZhuYTY4qPur7vs3Oc37VtfsnGEsOP3CJlfv+/1TIji0JiR0YT2ZT29FDae7lUVMuvKztjRhOCYN4W4KG12ldNotYpmNUJu2OcbOqUKwstLXwhFcX7JdpkETFBGrM3argqZUfLYzs7wk8Dyjd12NbbQOx+tzoXF16OEpmM4IqP0T1mIVgGcLQVl6SZKRmmyn44qhAO9LuSnbMdt9bdAnhRNFTHvi+ydedYBcXNnb8YQztJfPWbXhdlZSQa7iMyKjG6zK06tmkvyIBljPAzTXEXVgONMiIv039MrIS6Lswuu6iNRHCWmiZL0SydxTRikPWkomsNsno0THnlwM3WvwqmZDdCVAK2pDKNmIcvOipTGg6e+9CxkPC2elbjWl6blI63G4jGzproXRCkhsuz4wzltFtJsONyaTdMlKyvCx0/X6FmIWRdYLp9zIcvP8jw1EPk+K8LH59t9C/NupPS9i1qa5NGYk9QejiXCK5OxkYXFebLFJOMiaiudrCf3NQdk4SL9CWacqCckZtrK5JW5hSidziG/Lg6pw2zqsaYqCvOjnR3aKMRFeXoo11bVmPdXlUURxquJjSUkPOtIssixZgaMQeWUS7mv5Jf9qZku4nFeSV8ujiUk2RHkXhpZ1a1iIFZn796m1K3y7CDTuPSboHffuuYQQkzSCPwgGoUEzXhW/cMJuxgsjLJwpo6Q8GNl8lArJITxeWUOb+dHJ6svJGbaV84oNgsJ0qBaVbPjr/NaWprlKibMo649vSIkBGlwKi+aZme0Z3Vgx9Rsh+Ux/QevCQlBivuirqaxXj5a7EujBZ4+ftNhpoIQWToahByvCn/LsVio45VVkcrF0rsf9O8PFYQE/fT7R3pDSAgRxbJhzMpRm1c3taBqCInY58HzTSFhQRbj/AZCeVT3o7AQedZcxG1haRFcVIaLrVBXWKwl7f5e3RQSM7sBE2C5jsMC1RUSmg52Ng9vC+l3pV6a2ULU2lRYiCxtXOuP20L+XQljimUAl6srLOrpWRkia25c6SodsiyCsS2mrpCIbeW/ZquJyfHiYH0U2XhBz5YTwf45myCrJES064SBvfKrDxtgvtCaL0MWq/qwq5xni6ZCwrOXAJXXvEM3MDkiEoLIRJJz8kgUWXF3NNoEgrP0xpOVRXlKCIul0ctVfW8yNyw0+cLffORFbRejQ2lFDsBzjv/EfhzvTiupRuRdrFbIJiEAgJR29YTcyh1S6/wWsEpzi6KeuteE5+lkVmO51RNPZw0tLIKVO4RzcX4HqvlRDLDnTA1hvmhTuvdU/4TFbEkvZ1ZNr4Hw5gEfYTXRq7ttmU/YixGf1Lz1YOXWLoAi/bl8LYu9XSIfdkU4+fz8/Pz8PNaGZfz4++m/QTE/FizeO5Etf3ub6OMYmE13mVDwzSm0bQkgpW2vDp/G1Uf3eno2kV1bhc4Wq6tBK6cmWoZhWBaa9OptUGRc8MQ3DN8KmLj1IhClni996Ezwe7+rnxHWQi3UQi3UQi3UwrcQ/r+tkKsunLQUhqoLeVthpLyw7buCPAVeD3Q1sailsO5ukEoJiWwrNBQXWtBWOFe7ITK3tXCr9oCY36Z7XjgzlRaKSWshMJUbInJoL3SZys1w2YHQEQoL6akDoVR4REQ+7UAIG3WrabFdqpVQ4fGCrjsRykTValrZfttCWHkoUq3h/g90I7S5ooVIpx0Jy8/uvthgeK8wUnNINKPOhHUnJ7zCtOIBoafgqI8s6lD4zMbA3jvSOXQpVG9MrDyc1IEQtqpNE80tdCtsPLVB4Yj0QaGtVGdzuaWmvVCtAPyekPthYc0j2OP1oxvoQ6hOf4oL2Yvw/ISP8YDmCvoRqtIU71iceVYIRxWIdAf9CbM9kaOOhAb0KQR/7IE/3//fl9AbuUNteuK4OyFEZEwi3ryp3V4I4YhjBlIH+heOSCx2E/UrhMlYvQ39hmGE4NBRSlGcYCghTEaoqPgc8EkhTAa/b/os8FkhhANPiFGsYVghzAI26DDxAUMLwbaGi1ERQxheCLYx1EyDWVMYQwjSHeZ+BjVsGEcIsBcD9DfCbZXHdkLY9j5qYOk8uzGEEC767VKRb2FcIXh+n/0NIyGMLQQ49halIo0lKCCEbU/PESPdd5C7LoQQJX0M/gwnoIoQpNv9sNFuFOxaCLAlrOMaOu8oZ10JYdppDMcTB1QTAszNrmoqCtcGBYWw6qjDYbjtMFddCkEeO1jdQBp7oKoQYNK6GBk/dJuljoUgd61aI4qfKagtBJhYz0dxfHHoPD/dC0HOn2yNKFwPXkEIsPKfCXF44PSRmV6EAAfOHi7APxJeSAi2+1hrpEbYU076EgJMHqiqfLHuLR/9CQFO/L7BkZk7G15SCPbujuaINI76zESvQoAwvtEckfpOv1noWQjgWFeaI3JykPDiQoATNkQAyOhR9n75AYQgv2qNjO+8Aa4+hBDAu+xyGHejQa49jBAgqr4ujpnL1UBXHkoIEG3ys2UZjcPBrjucECByOUNCGF2GA151SCHAascpdcNBrzmsEGB6mg18xf8AZ4bYFeK18xgAAAAASUVORK5CYII=;" vertex="1" parent="1">
          <mxGeometry x="314.80999999999995" y="248.67" width="16.25" height="16.25" as="geometry" />
        </mxCell>
        <mxCell id="js2Lk6F2AfsSzgivTQNF-165" value="" style="whiteSpace=wrap;html=1;strokeColor=#001DBC;fontColor=#ffffff;fillColor=none;" vertex="1" parent="1">
          <mxGeometry x="285.76" y="234.5" width="74.24" height="46.25" as="geometry" />
        </mxCell>
        <mxCell id="js2Lk6F2AfsSzgivTQNF-166" value="&lt;font style=&quot;font-size: 6px&quot; color=&quot;#66b2ff&quot;&gt;lv-dev-vnet-useat2-subnet&lt;/font&gt;" style="text;html=1;resizable=0;autosize=1;align=center;verticalAlign=middle;points=[];fillColor=none;strokeColor=none;rounded=0;dashed=1;" vertex="1" parent="1">
          <mxGeometry x="282.88" y="259.92" width="80" height="20" as="geometry" />
        </mxCell>
        <mxCell id="js2Lk6F2AfsSzgivTQNF-171" value="" style="whiteSpace=wrap;html=1;strokeColor=#001DBC;fontColor=#ffffff;fillColor=none;strokeWidth=2;" vertex="1" parent="1">
          <mxGeometry x="178.2" y="128.75" width="221.8" height="177.5" as="geometry" />
        </mxCell>
        <mxCell id="js2Lk6F2AfsSzgivTQNF-172" value="" style="whiteSpace=wrap;html=1;strokeWidth=2;strokeColor=#006EAF;fontColor=#ffffff;fillColor=none;" vertex="1" parent="1">
          <mxGeometry x="162.60000000000002" y="354.5" width="247.57" height="136.17" as="geometry" />
        </mxCell>
        <mxCell id="js2Lk6F2AfsSzgivTQNF-175" value="" style="whiteSpace=wrap;html=1;strokeColor=#001DBC;fontColor=#ffffff;fillColor=none;" vertex="1" parent="1">
          <mxGeometry x="265.64" y="156.31" width="114.36" height="37.5" as="geometry" />
        </mxCell>
        <mxCell id="js2Lk6F2AfsSzgivTQNF-178" value="&lt;font style=&quot;font-size: 6px&quot; color=&quot;#66b2ff&quot;&gt;VNet-Peering&lt;/font&gt;" style="text;html=1;resizable=0;autosize=1;align=center;verticalAlign=middle;points=[];fillColor=none;strokeColor=none;rounded=0;dashed=1;" vertex="1" parent="1">
          <mxGeometry x="374.81" y="239.92" width="50" height="20" as="geometry" />
        </mxCell>
      </root>
    </mxGraphModel>
  </diagram>
</mxfile>
